<svg width="545" height="47" viewBox="0 0 545 47" fill="none" xmlns="http://www.w3.org/2000/svg">
<path d="M624.263 37.3113C562.645 46.1782 497.871 43.0223 435.803 42.872C369.676 42.7217 304.451 31.2998 238.325 32.6524C205.863 33.4038 173.4 29.9472 140.938 29.7969C110.73 29.7969 80.8232 35.0571 50.7657 35.3576C22.3613 35.6582 -5.44186 41.8199 -33.5456 44.2245C-47.0715 45.4268 -59.2448 42.5714 -72.6204 45.2766C-84.6434 47.6812 -97.4178 46.4788 -109.591 46.3285C-125.071 46.3285 -125.071 17.6236 -109.591 17.6236C-96.8167 17.6236 -85.2445 17.6237 -72.7707 15.2191C-58.9442 12.5139 -45.4184 17.0226 -31.5919 15.0688C-5.1413 11.4619 21.0088 6.80297 47.6097 6.20182C77.5169 5.60067 106.973 0.490779 136.88 0.641067C170.695 0.791354 204.51 3.94743 238.475 3.49657C303.399 2.74513 367.121 14.6178 431.895 15.5196C464.808 15.9704 497.571 15.3694 530.484 16.5717C546.414 17.1728 562.645 16.8721 578.576 18.6756C594.055 20.479 608.934 25.138 624.414 26.7911C629.824 27.6929 629.674 36.5598 624.263 37.3113Z" fill="white" fill-opacity="0.2"/>
</svg>
