<svg width="545" height="40" viewBox="0 0 545 40" fill="none" xmlns="http://www.w3.org/2000/svg">
<path d="M638.24 35.4844C605.627 37.7387 573.015 34.1317 540.402 34.282C506.888 34.4323 473.374 35.0334 439.86 35.1837C372.681 35.334 305.503 27.9699 238.324 30.3745C175.354 32.6289 112.383 36.0854 49.5631 30.6751C25.9679 28.571 4.02594 28.2705 -19.5692 31.8774C-41.5112 35.1838 -64.2046 40.1432 -86.2969 39.5421C-102.378 39.0912 -102.378 9.03375 -86.2969 9.93547C-41.6614 12.4904 2.37283 -3.74077 47.4591 1.97016C77.6669 5.87763 109.227 4.6753 139.736 5.12616C172.949 5.57702 205.411 3.4731 238.475 2.42109C305.653 0.317065 372.832 8.58277 440.01 8.88335C472.172 9.03364 504.333 8.28227 536.345 10.0857C571.061 12.0395 603.974 20.7561 638.39 25.2647C643.65 26.0162 643.951 35.1838 638.24 35.4844Z" fill="white" fill-opacity="0.2"/>
</svg>
