<svg width="545" height="38" viewBox="0 0 545 38" fill="none" xmlns="http://www.w3.org/2000/svg">
<path d="M635.986 26.0503C604.125 27.7035 572.865 30.7093 540.854 30.2585C510.646 29.8076 480.288 28.0042 450.08 27.1025C390.265 25.299 330.451 26.5012 270.636 26.952C213.677 27.4029 157.169 30.4087 100.06 30.4087C68.8002 30.4087 37.6906 30.4087 6.43078 30.559C-7.54596 30.559 -21.673 29.8075 -35.6497 30.559C-50.3779 31.4607 -64.505 36.2699 -79.2332 37.1717C-95.7648 38.2237 -95.9151 6.66319 -79.2332 6.66319C-50.6785 6.36262 -22.2741 2.15456 6.43078 2.15456C36.1877 2.15456 66.095 2.15471 95.8519 2.305C154.314 2.305 212.175 -0.400215 270.636 0.200935C328.948 0.802086 387.41 0.501511 445.721 3.20669C509.293 6.21244 572.564 14.3279 635.986 17.9348C640.494 18.0851 640.494 25.7498 635.986 26.0503Z" fill="white" fill-opacity="0.2"/>
</svg>
