<svg width="545" height="45" viewBox="0 0 545 45" fill="none" xmlns="http://www.w3.org/2000/svg">
<path d="M658.98 17.7991C608.633 42.296 552.576 33.7296 498.773 37.1863C467.964 39.14 436.554 40.0418 405.745 37.6372C373.884 35.2326 344.277 37.9377 312.567 42.5966C260.718 50.4115 211.423 32.3772 160.175 29.2211C97.0544 25.4639 33.3324 30.8742 -29.7884 29.6719C-39.5571 29.5216 -39.5571 11.9379 -29.7884 11.6374C33.3324 10.5854 97.0544 10.7356 160.175 12.3888C211.423 13.7414 266.128 21.1056 317.075 12.0883C374.786 1.86875 432.496 11.7877 490.507 6.3773C546.114 1.11724 601.42 4.12302 657.026 0.966985C665.893 0.66641 665.893 14.4928 658.98 17.7991Z" fill="white" fill-opacity="0.2"/>
</svg>
