<svg width="545" height="64" viewBox="0 0 545 64" fill="none" xmlns="http://www.w3.org/2000/svg">
<path d="M659.431 51.7483C626.968 55.2049 595.408 47.0893 562.946 46.0373C531.235 44.9853 499.525 47.5402 467.814 45.7368C401.988 41.9796 337.364 32.9623 271.238 33.2628C239.527 33.4131 207.516 31.6097 175.955 34.0143C148.753 36.1183 122.152 43.783 94.8001 45.1356C68.4998 46.4882 42.5 50.9968 16.35 53.5517C-12.3549 56.4071 -41.2102 63.6209 -69.9151 63.3204C-89.4525 63.0198 -89.3022 26.049 -69.9151 27.4016C-15.3607 31.1588 40.0954 14.0259 94.8001 12.5231C122.002 11.7716 148.753 3.65614 175.955 1.85269C207.516 -0.251341 239.677 1.55215 271.238 1.70243C337.364 1.85272 401.988 11.3208 467.814 15.5288C498.172 17.4826 528.68 15.2284 559.038 16.4307C593.003 17.7833 625.916 28.153 659.431 33.4131C669.199 34.7657 669.65 50.546 659.431 51.7483Z" fill="white" fill-opacity="0.2"/>
</svg>
