<svg width="545" height="53" viewBox="0 0 545 53" fill="none" xmlns="http://www.w3.org/2000/svg">
<path d="M643.049 18.9339C613.292 17.5813 582.934 23.7432 552.877 24.0438C522.068 24.194 491.409 27.3501 460.6 27.6507C429.791 28.1016 398.982 27.6506 368.173 27.9512C337.364 28.2518 307.307 34.2634 276.648 36.5177C216.232 40.7257 154.765 37.2691 94.349 37.2691C79.9214 37.2691 64.1412 34.8645 49.8639 36.5177C38.8929 37.8703 27.6214 41.6274 16.6504 43.5811C-1.38413 46.5869 -28.8868 59.3613 -46.0196 46.5869C-61.0483 35.3153 -46.4704 6.46018 -32.1931 18.4832C-24.3781 25.0958 -5.59225 16.5294 3.425 15.7779C15.2977 14.7259 26.8699 14.275 38.5923 12.171C64.2915 7.81265 91.7942 11.1191 117.794 11.1191C176.707 11.1191 236.521 15.0266 295.284 9.46593C323.688 6.76075 350.74 3.60464 379.445 3.75493C411.907 3.90521 444.82 6.30981 477.432 4.50636C530.784 1.50061 592.252 -7.06578 643.951 12.7722C646.506 13.8242 646.205 19.0842 643.049 18.9339Z" fill="white" fill-opacity="0.2"/>
</svg>
